<mxfile host="app.diagrams.net" agent="Mozilla/5.0 (Macintosh; Intel Mac OS X 10.15; rv:131.0) Gecko/20100101 Firefox/131.0" version="24.8.2">
  <diagram name="Pagina-1" id="q5uronyUK_CRiENWkVfr">
    <mxGraphModel dx="2867" dy="1353" grid="1" gridSize="10" guides="1" tooltips="1" connect="1" arrows="1" fold="1" page="1" pageScale="1" pageWidth="827" pageHeight="1169" math="0" shadow="0">
      <root>
        <mxCell id="0" />
        <mxCell id="1" parent="0" />
        <mxCell id="43L4oG_P8ra6ZPo5L0Zp-16" style="edgeStyle=orthogonalEdgeStyle;rounded=0;orthogonalLoop=1;jettySize=auto;html=1;exitX=0.5;exitY=1;exitDx=0;exitDy=0;entryX=0.5;entryY=0;entryDx=0;entryDy=0;" parent="1" source="43L4oG_P8ra6ZPo5L0Zp-13" target="43L4oG_P8ra6ZPo5L0Zp-15" edge="1">
          <mxGeometry relative="1" as="geometry" />
        </mxCell>
        <mxCell id="43L4oG_P8ra6ZPo5L0Zp-13" value="Start" style="rounded=1;whiteSpace=wrap;html=1;fillColor=#FFCCFF;" parent="1" vertex="1">
          <mxGeometry x="380" y="50" width="120" height="40" as="geometry" />
        </mxCell>
        <mxCell id="43L4oG_P8ra6ZPo5L0Zp-18" style="edgeStyle=orthogonalEdgeStyle;rounded=0;orthogonalLoop=1;jettySize=auto;html=1;exitX=0.5;exitY=1;exitDx=0;exitDy=0;" parent="1" source="43L4oG_P8ra6ZPo5L0Zp-15" target="43L4oG_P8ra6ZPo5L0Zp-17" edge="1">
          <mxGeometry relative="1" as="geometry" />
        </mxCell>
        <mxCell id="43L4oG_P8ra6ZPo5L0Zp-15" value="Kamer 1&lt;br&gt;print tekst" style="rounded=0;whiteSpace=wrap;html=1;fillColor=#CCE5FF;" parent="1" vertex="1">
          <mxGeometry x="380" y="120" width="120" height="60" as="geometry" />
        </mxCell>
        <mxCell id="43L4oG_P8ra6ZPo5L0Zp-20" style="edgeStyle=orthogonalEdgeStyle;rounded=0;orthogonalLoop=1;jettySize=auto;html=1;exitX=0.5;exitY=1;exitDx=0;exitDy=0;entryX=0.5;entryY=0;entryDx=0;entryDy=0;" parent="1" source="43L4oG_P8ra6ZPo5L0Zp-17" edge="1">
          <mxGeometry relative="1" as="geometry">
            <mxPoint x="440" y="290" as="targetPoint" />
          </mxGeometry>
        </mxCell>
        <mxCell id="43L4oG_P8ra6ZPo5L0Zp-17" value="Kamer 7,&lt;br&gt;print tekst en random kans om voor rupee" style="rounded=0;whiteSpace=wrap;html=1;fillColor=#CCE5FF;" parent="1" vertex="1">
          <mxGeometry x="380" y="210" width="120" height="60" as="geometry" />
        </mxCell>
        <mxCell id="uX0LoPKAfN4TH0BLUtlU-2" style="edgeStyle=orthogonalEdgeStyle;rounded=0;orthogonalLoop=1;jettySize=auto;html=1;exitX=0.5;exitY=1;exitDx=0;exitDy=0;entryX=0.5;entryY=0;entryDx=0;entryDy=0;" parent="1" target="uX0LoPKAfN4TH0BLUtlU-1" edge="1">
          <mxGeometry relative="1" as="geometry">
            <mxPoint x="440" y="350" as="sourcePoint" />
          </mxGeometry>
        </mxCell>
        <mxCell id="RhMJ9tLqQK5Z_PI1-GB_-32" style="edgeStyle=orthogonalEdgeStyle;rounded=0;orthogonalLoop=1;jettySize=auto;html=1;exitX=0;exitY=0.5;exitDx=0;exitDy=0;entryX=0.5;entryY=0;entryDx=0;entryDy=0;" edge="1" parent="1" source="uX0LoPKAfN4TH0BLUtlU-1" target="RhMJ9tLqQK5Z_PI1-GB_-13">
          <mxGeometry relative="1" as="geometry" />
        </mxCell>
        <mxCell id="RhMJ9tLqQK5Z_PI1-GB_-34" value="2" style="edgeLabel;html=1;align=center;verticalAlign=middle;resizable=0;points=[];" vertex="1" connectable="0" parent="RhMJ9tLqQK5Z_PI1-GB_-32">
          <mxGeometry x="-0.3867" relative="1" as="geometry">
            <mxPoint as="offset" />
          </mxGeometry>
        </mxCell>
        <mxCell id="RhMJ9tLqQK5Z_PI1-GB_-33" value="&lt;div&gt;1&lt;/div&gt;" style="edgeStyle=orthogonalEdgeStyle;rounded=0;orthogonalLoop=1;jettySize=auto;html=1;entryX=0.5;entryY=0;entryDx=0;entryDy=0;" edge="1" parent="1" source="uX0LoPKAfN4TH0BLUtlU-1" target="RhMJ9tLqQK5Z_PI1-GB_-12">
          <mxGeometry relative="1" as="geometry" />
        </mxCell>
        <mxCell id="uX0LoPKAfN4TH0BLUtlU-1" value="Antwoord:" style="rhombus;whiteSpace=wrap;html=1;fillColor=#E6E6E6;" parent="1" vertex="1">
          <mxGeometry x="400" y="370" width="80" height="80" as="geometry" />
        </mxCell>
        <mxCell id="uX0LoPKAfN4TH0BLUtlU-24" style="edgeStyle=orthogonalEdgeStyle;rounded=0;orthogonalLoop=1;jettySize=auto;html=1;exitX=0.5;exitY=1;exitDx=0;exitDy=0;entryX=0.5;entryY=0;entryDx=0;entryDy=0;" parent="1" target="uX0LoPKAfN4TH0BLUtlU-23" edge="1">
          <mxGeometry relative="1" as="geometry">
            <mxPoint x="130" y="1310" as="sourcePoint" />
          </mxGeometry>
        </mxCell>
        <mxCell id="uX0LoPKAfN4TH0BLUtlU-30" style="edgeStyle=orthogonalEdgeStyle;rounded=0;orthogonalLoop=1;jettySize=auto;html=1;exitX=1;exitY=0.5;exitDx=0;exitDy=0;entryX=0.5;entryY=0;entryDx=0;entryDy=0;" parent="1" source="uX0LoPKAfN4TH0BLUtlU-23" target="uX0LoPKAfN4TH0BLUtlU-32" edge="1">
          <mxGeometry relative="1" as="geometry">
            <Array as="points">
              <mxPoint x="290" y="1380" />
            </Array>
          </mxGeometry>
        </mxCell>
        <mxCell id="uX0LoPKAfN4TH0BLUtlU-31" value="False" style="edgeLabel;html=1;align=center;verticalAlign=middle;resizable=0;points=[];" parent="uX0LoPKAfN4TH0BLUtlU-30" vertex="1" connectable="0">
          <mxGeometry x="-0.765" y="-2" relative="1" as="geometry">
            <mxPoint x="9" y="-2" as="offset" />
          </mxGeometry>
        </mxCell>
        <mxCell id="uX0LoPKAfN4TH0BLUtlU-34" style="edgeStyle=orthogonalEdgeStyle;rounded=0;orthogonalLoop=1;jettySize=auto;html=1;exitX=0;exitY=0.5;exitDx=0;exitDy=0;entryX=0;entryY=0.5;entryDx=0;entryDy=0;" parent="1" source="uX0LoPKAfN4TH0BLUtlU-23" target="uX0LoPKAfN4TH0BLUtlU-36" edge="1">
          <mxGeometry relative="1" as="geometry">
            <mxPoint x="-20" y="1490" as="targetPoint" />
            <Array as="points">
              <mxPoint x="-10" y="1380" />
              <mxPoint x="-10" y="1470" />
            </Array>
          </mxGeometry>
        </mxCell>
        <mxCell id="uX0LoPKAfN4TH0BLUtlU-35" value="True" style="edgeLabel;html=1;align=center;verticalAlign=middle;resizable=0;points=[];" parent="uX0LoPKAfN4TH0BLUtlU-34" vertex="1" connectable="0">
          <mxGeometry x="-0.599" y="5" relative="1" as="geometry">
            <mxPoint y="-5" as="offset" />
          </mxGeometry>
        </mxCell>
        <mxCell id="uX0LoPKAfN4TH0BLUtlU-23" value="Succes?" style="rhombus;whiteSpace=wrap;html=1;fillColor=#E6E6E6;" parent="1" vertex="1">
          <mxGeometry x="80" y="1340" width="80" height="80" as="geometry" />
        </mxCell>
        <mxCell id="uX0LoPKAfN4TH0BLUtlU-29" value="End" style="rounded=1;whiteSpace=wrap;html=1;fillColor=#FFCCFF;" parent="1" vertex="1">
          <mxGeometry x="60" y="1650" width="120" height="40" as="geometry" />
        </mxCell>
        <mxCell id="uX0LoPKAfN4TH0BLUtlU-33" style="edgeStyle=orthogonalEdgeStyle;rounded=0;orthogonalLoop=1;jettySize=auto;html=1;exitX=0.5;exitY=1;exitDx=0;exitDy=0;entryX=1;entryY=0.5;entryDx=0;entryDy=0;" parent="1" source="uX0LoPKAfN4TH0BLUtlU-32" target="uX0LoPKAfN4TH0BLUtlU-29" edge="1">
          <mxGeometry relative="1" as="geometry" />
        </mxCell>
        <mxCell id="uX0LoPKAfN4TH0BLUtlU-32" value="Print game over" style="rounded=0;whiteSpace=wrap;html=1;fillColor=#CCE5FF;" parent="1" vertex="1">
          <mxGeometry x="230" y="1550" width="120" height="60" as="geometry" />
        </mxCell>
        <mxCell id="uX0LoPKAfN4TH0BLUtlU-38" style="edgeStyle=orthogonalEdgeStyle;rounded=0;orthogonalLoop=1;jettySize=auto;html=1;exitX=0.5;exitY=1;exitDx=0;exitDy=0;entryX=0.5;entryY=0;entryDx=0;entryDy=0;" parent="1" source="uX0LoPKAfN4TH0BLUtlU-36" target="uX0LoPKAfN4TH0BLUtlU-37" edge="1">
          <mxGeometry relative="1" as="geometry" />
        </mxCell>
        <mxCell id="uX0LoPKAfN4TH0BLUtlU-36" value="Kamer 5,&lt;br&gt;Print tekst" style="rounded=0;whiteSpace=wrap;html=1;fillColor=#CCE5FF;" parent="1" vertex="1">
          <mxGeometry x="60" y="1440" width="120" height="60" as="geometry" />
        </mxCell>
        <mxCell id="uX0LoPKAfN4TH0BLUtlU-39" style="edgeStyle=orthogonalEdgeStyle;rounded=0;orthogonalLoop=1;jettySize=auto;html=1;exitX=1;exitY=0.5;exitDx=0;exitDy=0;" parent="1" source="uX0LoPKAfN4TH0BLUtlU-37" target="uX0LoPKAfN4TH0BLUtlU-32" edge="1">
          <mxGeometry relative="1" as="geometry" />
        </mxCell>
        <mxCell id="uX0LoPKAfN4TH0BLUtlU-40" value="False" style="edgeLabel;html=1;align=center;verticalAlign=middle;resizable=0;points=[];" parent="uX0LoPKAfN4TH0BLUtlU-39" vertex="1" connectable="0">
          <mxGeometry x="-0.5562" y="-1" relative="1" as="geometry">
            <mxPoint x="23" y="-1" as="offset" />
          </mxGeometry>
        </mxCell>
        <mxCell id="uX0LoPKAfN4TH0BLUtlU-42" style="edgeStyle=orthogonalEdgeStyle;rounded=0;orthogonalLoop=1;jettySize=auto;html=1;exitX=0;exitY=0.5;exitDx=0;exitDy=0;entryX=1;entryY=0.5;entryDx=0;entryDy=0;" parent="1" source="uX0LoPKAfN4TH0BLUtlU-37" target="uX0LoPKAfN4TH0BLUtlU-41" edge="1">
          <mxGeometry relative="1" as="geometry" />
        </mxCell>
        <mxCell id="uX0LoPKAfN4TH0BLUtlU-44" value="True" style="edgeLabel;html=1;align=center;verticalAlign=middle;resizable=0;points=[];" parent="uX0LoPKAfN4TH0BLUtlU-42" vertex="1" connectable="0">
          <mxGeometry x="-0.075" y="4" relative="1" as="geometry">
            <mxPoint y="-4" as="offset" />
          </mxGeometry>
        </mxCell>
        <mxCell id="uX0LoPKAfN4TH0BLUtlU-37" value="Heeft&lt;br&gt;sleutel?" style="rhombus;whiteSpace=wrap;html=1;fillColor=#E6E6E6;" parent="1" vertex="1">
          <mxGeometry x="80" y="1540" width="80" height="80" as="geometry" />
        </mxCell>
        <mxCell id="uX0LoPKAfN4TH0BLUtlU-43" style="edgeStyle=orthogonalEdgeStyle;rounded=0;orthogonalLoop=1;jettySize=auto;html=1;exitX=0.5;exitY=1;exitDx=0;exitDy=0;entryX=0;entryY=0.5;entryDx=0;entryDy=0;" parent="1" source="uX0LoPKAfN4TH0BLUtlU-41" target="uX0LoPKAfN4TH0BLUtlU-29" edge="1">
          <mxGeometry relative="1" as="geometry" />
        </mxCell>
        <mxCell id="uX0LoPKAfN4TH0BLUtlU-41" value="Print win" style="rounded=0;whiteSpace=wrap;html=1;fillColor=#CCE5FF;" parent="1" vertex="1">
          <mxGeometry x="-120" y="1550" width="120" height="60" as="geometry" />
        </mxCell>
        <mxCell id="RhMJ9tLqQK5Z_PI1-GB_-1" value="&lt;div&gt;kies numer 1 of 2&lt;/div&gt;" style="shape=parallelogram;perimeter=parallelogramPerimeter;whiteSpace=wrap;html=1;fixedSize=1;fillColor=#FFFFCC;" vertex="1" parent="1">
          <mxGeometry x="380" y="290" width="120" height="60" as="geometry" />
        </mxCell>
        <mxCell id="RhMJ9tLqQK5Z_PI1-GB_-12" value="Kamer 8&lt;br&gt;print tekst" style="rounded=0;whiteSpace=wrap;html=1;fillColor=#CCE5FF;" vertex="1" parent="1">
          <mxGeometry x="580" y="440" width="120" height="60" as="geometry" />
        </mxCell>
        <mxCell id="RhMJ9tLqQK5Z_PI1-GB_-37" style="edgeStyle=orthogonalEdgeStyle;rounded=0;orthogonalLoop=1;jettySize=auto;html=1;entryX=0.5;entryY=0;entryDx=0;entryDy=0;" edge="1" parent="1" source="RhMJ9tLqQK5Z_PI1-GB_-13" target="RhMJ9tLqQK5Z_PI1-GB_-35">
          <mxGeometry relative="1" as="geometry" />
        </mxCell>
        <mxCell id="RhMJ9tLqQK5Z_PI1-GB_-13" value="&lt;div&gt;Kamer 2&lt;/div&gt;print tekst en calculator" style="rounded=0;whiteSpace=wrap;html=1;fillColor=#CCE5FF;" vertex="1" parent="1">
          <mxGeometry x="180" y="440" width="120" height="60" as="geometry" />
        </mxCell>
        <mxCell id="RhMJ9tLqQK5Z_PI1-GB_-38" style="edgeStyle=orthogonalEdgeStyle;rounded=0;orthogonalLoop=1;jettySize=auto;html=1;exitX=0;exitY=0.5;exitDx=0;exitDy=0;entryX=0;entryY=0.5;entryDx=0;entryDy=0;" edge="1" parent="1" source="RhMJ9tLqQK5Z_PI1-GB_-35" target="RhMJ9tLqQK5Z_PI1-GB_-36">
          <mxGeometry relative="1" as="geometry">
            <mxPoint x="120" y="650" as="targetPoint" />
            <Array as="points">
              <mxPoint x="121" y="560" />
              <mxPoint x="121" y="650" />
            </Array>
          </mxGeometry>
        </mxCell>
        <mxCell id="RhMJ9tLqQK5Z_PI1-GB_-42" value="Niet goed" style="edgeLabel;html=1;align=center;verticalAlign=middle;resizable=0;points=[];" vertex="1" connectable="0" parent="RhMJ9tLqQK5Z_PI1-GB_-38">
          <mxGeometry x="-0.6404" y="4" relative="1" as="geometry">
            <mxPoint as="offset" />
          </mxGeometry>
        </mxCell>
        <mxCell id="RhMJ9tLqQK5Z_PI1-GB_-40" style="edgeStyle=orthogonalEdgeStyle;rounded=0;orthogonalLoop=1;jettySize=auto;html=1;entryX=1;entryY=0.5;entryDx=0;entryDy=0;" edge="1" parent="1" source="RhMJ9tLqQK5Z_PI1-GB_-35" target="RhMJ9tLqQK5Z_PI1-GB_-36">
          <mxGeometry relative="1" as="geometry">
            <mxPoint x="360" y="650" as="targetPoint" />
            <Array as="points">
              <mxPoint x="361" y="560" />
              <mxPoint x="361" y="650" />
            </Array>
          </mxGeometry>
        </mxCell>
        <mxCell id="RhMJ9tLqQK5Z_PI1-GB_-41" value="Goed" style="edgeLabel;html=1;align=center;verticalAlign=middle;resizable=0;points=[];" vertex="1" connectable="0" parent="RhMJ9tLqQK5Z_PI1-GB_-40">
          <mxGeometry x="-0.75" y="-4" relative="1" as="geometry">
            <mxPoint as="offset" />
          </mxGeometry>
        </mxCell>
        <mxCell id="RhMJ9tLqQK5Z_PI1-GB_-35" value="Antwoord:" style="rhombus;whiteSpace=wrap;html=1;fillColor=#E6E6E6;" vertex="1" parent="1">
          <mxGeometry x="200" y="520" width="80" height="80" as="geometry" />
        </mxCell>
        <mxCell id="RhMJ9tLqQK5Z_PI1-GB_-52" style="edgeStyle=orthogonalEdgeStyle;rounded=0;orthogonalLoop=1;jettySize=auto;html=1;exitX=0.5;exitY=1;exitDx=0;exitDy=0;entryX=0.5;entryY=0;entryDx=0;entryDy=0;" edge="1" parent="1" source="RhMJ9tLqQK5Z_PI1-GB_-36" target="RhMJ9tLqQK5Z_PI1-GB_-51">
          <mxGeometry relative="1" as="geometry" />
        </mxCell>
        <mxCell id="RhMJ9tLqQK5Z_PI1-GB_-36" value="Kamer 6,&lt;br&gt;Zombie battle" style="rounded=0;whiteSpace=wrap;html=1;fillColor=#CCE5FF;" vertex="1" parent="1">
          <mxGeometry x="180" y="620" width="120" height="60" as="geometry" />
        </mxCell>
        <mxCell id="RhMJ9tLqQK5Z_PI1-GB_-43" value="+1 Rupee" style="ellipse;whiteSpace=wrap;html=1;aspect=fixed;fillColor=#99FF99;" vertex="1" parent="1">
          <mxGeometry x="330" y="585" width="50" height="50" as="geometry" />
        </mxCell>
        <mxCell id="RhMJ9tLqQK5Z_PI1-GB_-54" style="edgeStyle=orthogonalEdgeStyle;rounded=0;orthogonalLoop=1;jettySize=auto;html=1;entryX=0.5;entryY=0;entryDx=0;entryDy=0;" edge="1" parent="1" source="RhMJ9tLqQK5Z_PI1-GB_-51" target="RhMJ9tLqQK5Z_PI1-GB_-53">
          <mxGeometry relative="1" as="geometry" />
        </mxCell>
        <mxCell id="RhMJ9tLqQK5Z_PI1-GB_-51" value="&lt;div&gt;kies numer 1 of 2&lt;/div&gt;" style="shape=parallelogram;perimeter=parallelogramPerimeter;whiteSpace=wrap;html=1;fixedSize=1;fillColor=#FFFFCC;" vertex="1" parent="1">
          <mxGeometry x="180" y="720" width="120" height="60" as="geometry" />
        </mxCell>
        <mxCell id="RhMJ9tLqQK5Z_PI1-GB_-55" style="edgeStyle=orthogonalEdgeStyle;rounded=0;orthogonalLoop=1;jettySize=auto;html=1;exitX=1;exitY=0.5;exitDx=0;exitDy=0;entryX=0.25;entryY=1;entryDx=0;entryDy=0;" edge="1" parent="1" source="RhMJ9tLqQK5Z_PI1-GB_-53" target="RhMJ9tLqQK5Z_PI1-GB_-12">
          <mxGeometry relative="1" as="geometry">
            <mxPoint x="350" y="850" as="targetPoint" />
          </mxGeometry>
        </mxCell>
        <mxCell id="RhMJ9tLqQK5Z_PI1-GB_-58" value="1" style="edgeLabel;html=1;align=center;verticalAlign=middle;resizable=0;points=[];" vertex="1" connectable="0" parent="RhMJ9tLqQK5Z_PI1-GB_-55">
          <mxGeometry x="-0.8588" y="-2" relative="1" as="geometry">
            <mxPoint as="offset" />
          </mxGeometry>
        </mxCell>
        <mxCell id="RhMJ9tLqQK5Z_PI1-GB_-60" style="edgeStyle=orthogonalEdgeStyle;rounded=0;orthogonalLoop=1;jettySize=auto;html=1;exitX=0;exitY=0.5;exitDx=0;exitDy=0;entryX=0.5;entryY=0;entryDx=0;entryDy=0;" edge="1" parent="1" source="RhMJ9tLqQK5Z_PI1-GB_-53" target="RhMJ9tLqQK5Z_PI1-GB_-59">
          <mxGeometry relative="1" as="geometry" />
        </mxCell>
        <mxCell id="RhMJ9tLqQK5Z_PI1-GB_-61" value="2" style="edgeLabel;html=1;align=center;verticalAlign=middle;resizable=0;points=[];" vertex="1" connectable="0" parent="RhMJ9tLqQK5Z_PI1-GB_-60">
          <mxGeometry x="-0.4615" y="-2" relative="1" as="geometry">
            <mxPoint as="offset" />
          </mxGeometry>
        </mxCell>
        <mxCell id="RhMJ9tLqQK5Z_PI1-GB_-53" value="Antwoord:" style="rhombus;whiteSpace=wrap;html=1;fillColor=#E6E6E6;" vertex="1" parent="1">
          <mxGeometry x="200" y="810" width="80" height="80" as="geometry" />
        </mxCell>
        <mxCell id="RhMJ9tLqQK5Z_PI1-GB_-63" style="edgeStyle=orthogonalEdgeStyle;rounded=0;orthogonalLoop=1;jettySize=auto;html=1;exitX=0.5;exitY=1;exitDx=0;exitDy=0;entryX=0.5;entryY=0;entryDx=0;entryDy=0;" edge="1" parent="1" source="RhMJ9tLqQK5Z_PI1-GB_-59" target="RhMJ9tLqQK5Z_PI1-GB_-62">
          <mxGeometry relative="1" as="geometry" />
        </mxCell>
        <mxCell id="RhMJ9tLqQK5Z_PI1-GB_-59" value="&lt;div&gt;Kamer 3,&lt;/div&gt;&lt;div&gt;Print tekst en goblon shop&lt;br&gt;&lt;/div&gt;" style="rounded=0;whiteSpace=wrap;html=1;fillColor=#CCE5FF;" vertex="1" parent="1">
          <mxGeometry x="60" y="900" width="120" height="60" as="geometry" />
        </mxCell>
        <mxCell id="RhMJ9tLqQK5Z_PI1-GB_-100" style="edgeStyle=orthogonalEdgeStyle;rounded=0;orthogonalLoop=1;jettySize=auto;html=1;entryX=0.5;entryY=0;entryDx=0;entryDy=0;" edge="1" parent="1" source="RhMJ9tLqQK5Z_PI1-GB_-62" target="RhMJ9tLqQK5Z_PI1-GB_-76">
          <mxGeometry relative="1" as="geometry" />
        </mxCell>
        <mxCell id="RhMJ9tLqQK5Z_PI1-GB_-62" value="&lt;div&gt;Wil je iets kopen?&lt;/div&gt;" style="shape=parallelogram;perimeter=parallelogramPerimeter;whiteSpace=wrap;html=1;fixedSize=1;fillColor=#FFFFCC;" vertex="1" parent="1">
          <mxGeometry x="60" y="990" width="120" height="60" as="geometry" />
        </mxCell>
        <mxCell id="RhMJ9tLqQK5Z_PI1-GB_-105" style="edgeStyle=orthogonalEdgeStyle;rounded=0;orthogonalLoop=1;jettySize=auto;html=1;exitX=1;exitY=0.5;exitDx=0;exitDy=0;entryX=1;entryY=0.5;entryDx=0;entryDy=0;" edge="1" parent="1" source="RhMJ9tLqQK5Z_PI1-GB_-76" target="RhMJ9tLqQK5Z_PI1-GB_-101">
          <mxGeometry relative="1" as="geometry" />
        </mxCell>
        <mxCell id="RhMJ9tLqQK5Z_PI1-GB_-110" style="edgeStyle=orthogonalEdgeStyle;rounded=0;orthogonalLoop=1;jettySize=auto;html=1;" edge="1" parent="1" source="RhMJ9tLqQK5Z_PI1-GB_-76" target="RhMJ9tLqQK5Z_PI1-GB_-109">
          <mxGeometry relative="1" as="geometry" />
        </mxCell>
        <mxCell id="RhMJ9tLqQK5Z_PI1-GB_-76" value="Antwoord?" style="rhombus;whiteSpace=wrap;html=1;fillColor=#E6E6E6;" vertex="1" parent="1">
          <mxGeometry x="80" y="1080" width="80" height="80" as="geometry" />
        </mxCell>
        <mxCell id="RhMJ9tLqQK5Z_PI1-GB_-101" value="Kamer 4&lt;br&gt;Print tekst en Ghoul battle" style="rounded=0;whiteSpace=wrap;html=1;fillColor=#CCE5FF;" vertex="1" parent="1">
          <mxGeometry x="60" y="1250" width="120" height="60" as="geometry" />
        </mxCell>
        <mxCell id="RhMJ9tLqQK5Z_PI1-GB_-112" style="edgeStyle=orthogonalEdgeStyle;rounded=0;orthogonalLoop=1;jettySize=auto;html=1;entryX=0;entryY=0.5;entryDx=0;entryDy=0;" edge="1" parent="1" source="RhMJ9tLqQK5Z_PI1-GB_-109" target="RhMJ9tLqQK5Z_PI1-GB_-101">
          <mxGeometry relative="1" as="geometry" />
        </mxCell>
        <mxCell id="RhMJ9tLqQK5Z_PI1-GB_-109" value="item gekocht +1" style="ellipse;whiteSpace=wrap;html=1;aspect=fixed;fillColor=#99FF99;" vertex="1" parent="1">
          <mxGeometry x="-10" y="1169" width="50" height="50" as="geometry" />
        </mxCell>
        <mxCell id="RhMJ9tLqQK5Z_PI1-GB_-136" style="edgeStyle=orthogonalEdgeStyle;rounded=0;orthogonalLoop=1;jettySize=auto;html=1;" edge="1" parent="1" source="RhMJ9tLqQK5Z_PI1-GB_-135">
          <mxGeometry relative="1" as="geometry">
            <mxPoint x="850" y="555" as="targetPoint" />
          </mxGeometry>
        </mxCell>
        <mxCell id="RhMJ9tLqQK5Z_PI1-GB_-146" style="edgeStyle=orthogonalEdgeStyle;rounded=0;orthogonalLoop=1;jettySize=auto;html=1;entryX=0.5;entryY=0;entryDx=0;entryDy=0;" edge="1" parent="1" source="RhMJ9tLqQK5Z_PI1-GB_-135" target="RhMJ9tLqQK5Z_PI1-GB_-145">
          <mxGeometry relative="1" as="geometry" />
        </mxCell>
        <mxCell id="RhMJ9tLqQK5Z_PI1-GB_-135" value="wil jegoken?" style="shape=parallelogram;perimeter=parallelogramPerimeter;whiteSpace=wrap;html=1;fixedSize=1;rounded=1;fillColor=#FFFFCC;strokeColor=default;" vertex="1" parent="1">
          <mxGeometry x="670" y="525" width="120" height="60" as="geometry" />
        </mxCell>
        <mxCell id="RhMJ9tLqQK5Z_PI1-GB_-138" value="" style="edgeStyle=orthogonalEdgeStyle;rounded=0;orthogonalLoop=1;jettySize=auto;html=1;" edge="1" parent="1" source="RhMJ9tLqQK5Z_PI1-GB_-141" target="RhMJ9tLqQK5Z_PI1-GB_-142">
          <mxGeometry relative="1" as="geometry" />
        </mxCell>
        <mxCell id="RhMJ9tLqQK5Z_PI1-GB_-139" style="edgeStyle=orthogonalEdgeStyle;rounded=0;orthogonalLoop=1;jettySize=auto;html=1;exitX=0.5;exitY=1;exitDx=0;exitDy=0;entryX=0.5;entryY=0;entryDx=0;entryDy=0;" edge="1" parent="1" source="RhMJ9tLqQK5Z_PI1-GB_-141" target="RhMJ9tLqQK5Z_PI1-GB_-143">
          <mxGeometry relative="1" as="geometry" />
        </mxCell>
        <mxCell id="RhMJ9tLqQK5Z_PI1-GB_-140" style="edgeStyle=orthogonalEdgeStyle;rounded=0;orthogonalLoop=1;jettySize=auto;html=1;exitX=1;exitY=0.5;exitDx=0;exitDy=0;entryX=0.5;entryY=0;entryDx=0;entryDy=0;" edge="1" parent="1" source="RhMJ9tLqQK5Z_PI1-GB_-141" target="RhMJ9tLqQK5Z_PI1-GB_-144">
          <mxGeometry relative="1" as="geometry">
            <Array as="points">
              <mxPoint x="904" y="580" />
              <mxPoint x="980" y="580" />
            </Array>
          </mxGeometry>
        </mxCell>
        <mxCell id="RhMJ9tLqQK5Z_PI1-GB_-141" value="ja" style="whiteSpace=wrap;html=1;rounded=1;arcSize=0;fillColor=#CCE5FF;strokeColor=#000000;fontColor=#000000;" vertex="1" parent="1">
          <mxGeometry x="850" y="530" width="54" height="50" as="geometry" />
        </mxCell>
        <mxCell id="RhMJ9tLqQK5Z_PI1-GB_-150" style="edgeStyle=orthogonalEdgeStyle;rounded=0;orthogonalLoop=1;jettySize=auto;html=1;" edge="1" parent="1" source="RhMJ9tLqQK5Z_PI1-GB_-142" target="RhMJ9tLqQK5Z_PI1-GB_-147">
          <mxGeometry relative="1" as="geometry" />
        </mxCell>
        <mxCell id="RhMJ9tLqQK5Z_PI1-GB_-142" value="rupees x2" style="ellipse;whiteSpace=wrap;html=1;rounded=1;fillColor=#99FF99;strokeColor=#000000;fontColor=#000000;" vertex="1" parent="1">
          <mxGeometry x="840" y="630" width="47" height="40" as="geometry" />
        </mxCell>
        <mxCell id="RhMJ9tLqQK5Z_PI1-GB_-143" value="health -1" style="ellipse;whiteSpace=wrap;html=1;rounded=1;fillColor=#99FF99;strokeColor=#000000;fontColor=#000000;" vertex="1" parent="1">
          <mxGeometry x="904" y="630" width="45.5" height="40" as="geometry" />
        </mxCell>
        <mxCell id="RhMJ9tLqQK5Z_PI1-GB_-153" style="edgeStyle=orthogonalEdgeStyle;rounded=0;orthogonalLoop=1;jettySize=auto;html=1;" edge="1" parent="1" source="RhMJ9tLqQK5Z_PI1-GB_-144">
          <mxGeometry relative="1" as="geometry">
            <mxPoint x="870" y="780" as="targetPoint" />
          </mxGeometry>
        </mxCell>
        <mxCell id="RhMJ9tLqQK5Z_PI1-GB_-144" value="health +4&lt;div&gt;ruppes +1&lt;/div&gt;" style="ellipse;whiteSpace=wrap;html=1;rounded=1;fillColor=#99FF99;strokeColor=#000000;fontColor=#000000;" vertex="1" parent="1">
          <mxGeometry x="949.5" y="670" width="60" height="60" as="geometry" />
        </mxCell>
        <mxCell id="RhMJ9tLqQK5Z_PI1-GB_-164" style="edgeStyle=orthogonalEdgeStyle;rounded=0;orthogonalLoop=1;jettySize=auto;html=1;entryX=0;entryY=0.25;entryDx=0;entryDy=0;" edge="1" parent="1" source="RhMJ9tLqQK5Z_PI1-GB_-145" target="RhMJ9tLqQK5Z_PI1-GB_-158">
          <mxGeometry relative="1" as="geometry" />
        </mxCell>
        <mxCell id="RhMJ9tLqQK5Z_PI1-GB_-145" value="nee" style="whiteSpace=wrap;html=1;rounded=1;arcSize=0;fillColor=#CCE5FF;strokeColor=#000000;fontColor=#000000;" vertex="1" parent="1">
          <mxGeometry x="703" y="610" width="54" height="50" as="geometry" />
        </mxCell>
        <mxCell id="RhMJ9tLqQK5Z_PI1-GB_-155" style="edgeStyle=orthogonalEdgeStyle;rounded=0;orthogonalLoop=1;jettySize=auto;html=1;entryX=1;entryY=0.5;entryDx=0;entryDy=0;" edge="1" parent="1" source="RhMJ9tLqQK5Z_PI1-GB_-147" target="RhMJ9tLqQK5Z_PI1-GB_-59">
          <mxGeometry relative="1" as="geometry" />
        </mxCell>
        <mxCell id="RhMJ9tLqQK5Z_PI1-GB_-156" value="1" style="edgeLabel;html=1;align=center;verticalAlign=middle;resizable=0;points=[];" vertex="1" connectable="0" parent="RhMJ9tLqQK5Z_PI1-GB_-155">
          <mxGeometry x="-0.7603" y="-1" relative="1" as="geometry">
            <mxPoint x="1" as="offset" />
          </mxGeometry>
        </mxCell>
        <mxCell id="RhMJ9tLqQK5Z_PI1-GB_-159" style="edgeStyle=orthogonalEdgeStyle;rounded=0;orthogonalLoop=1;jettySize=auto;html=1;" edge="1" parent="1" source="RhMJ9tLqQK5Z_PI1-GB_-147" target="RhMJ9tLqQK5Z_PI1-GB_-158">
          <mxGeometry relative="1" as="geometry" />
        </mxCell>
        <mxCell id="RhMJ9tLqQK5Z_PI1-GB_-160" value="2" style="edgeLabel;html=1;align=center;verticalAlign=middle;resizable=0;points=[];" vertex="1" connectable="0" parent="RhMJ9tLqQK5Z_PI1-GB_-159">
          <mxGeometry x="-0.3" y="2" relative="1" as="geometry">
            <mxPoint as="offset" />
          </mxGeometry>
        </mxCell>
        <mxCell id="RhMJ9tLqQK5Z_PI1-GB_-147" value="&lt;div&gt;kies numer 1 of 2&lt;/div&gt;" style="shape=parallelogram;perimeter=parallelogramPerimeter;whiteSpace=wrap;html=1;fixedSize=1;fillColor=#FFFFCC;" vertex="1" parent="1">
          <mxGeometry x="803.5" y="770" width="120" height="60" as="geometry" />
        </mxCell>
        <mxCell id="RhMJ9tLqQK5Z_PI1-GB_-154" style="edgeStyle=orthogonalEdgeStyle;rounded=0;orthogonalLoop=1;jettySize=auto;html=1;entryX=0.829;entryY=0.067;entryDx=0;entryDy=0;entryPerimeter=0;" edge="1" parent="1" source="RhMJ9tLqQK5Z_PI1-GB_-143" target="RhMJ9tLqQK5Z_PI1-GB_-147">
          <mxGeometry relative="1" as="geometry" />
        </mxCell>
        <mxCell id="RhMJ9tLqQK5Z_PI1-GB_-162" style="edgeStyle=orthogonalEdgeStyle;rounded=0;orthogonalLoop=1;jettySize=auto;html=1;entryX=0.5;entryY=0;entryDx=0;entryDy=0;" edge="1" parent="1" source="RhMJ9tLqQK5Z_PI1-GB_-158" target="RhMJ9tLqQK5Z_PI1-GB_-161">
          <mxGeometry relative="1" as="geometry" />
        </mxCell>
        <mxCell id="RhMJ9tLqQK5Z_PI1-GB_-158" value="&lt;div&gt;Kamer 9&lt;br&gt;&lt;/div&gt;print tekst en calculator" style="rounded=0;whiteSpace=wrap;html=1;fillColor=#CCE5FF;" vertex="1" parent="1">
          <mxGeometry x="803.5" y="910" width="120" height="60" as="geometry" />
        </mxCell>
        <mxCell id="RhMJ9tLqQK5Z_PI1-GB_-163" style="edgeStyle=orthogonalEdgeStyle;rounded=0;orthogonalLoop=1;jettySize=auto;html=1;entryX=1;entryY=1;entryDx=0;entryDy=0;" edge="1" parent="1" source="RhMJ9tLqQK5Z_PI1-GB_-161" target="RhMJ9tLqQK5Z_PI1-GB_-59">
          <mxGeometry relative="1" as="geometry" />
        </mxCell>
        <mxCell id="RhMJ9tLqQK5Z_PI1-GB_-161" value="krijg een random extra defence of attack" style="ellipse;whiteSpace=wrap;html=1;rounded=1;fillColor=#99FF99;strokeColor=#000000;fontColor=#ffffff;" vertex="1" parent="1">
          <mxGeometry x="659.9999999999999" y="920" width="82.57" height="80" as="geometry" />
        </mxCell>
      </root>
    </mxGraphModel>
  </diagram>
</mxfile>
